<?xml version="1.0" standalone="no"?>
<!DOCTYPE svg PUBLIC "-//W3C//DTD SVG 20010904//EN"
 "http://www.w3.org/TR/2001/REC-SVG-20010904/DTD/svg10.dtd">
<svg version="1.0" xmlns="http://www.w3.org/2000/svg"
 width="2645.000000pt" height="1815.000000pt" viewBox="0 0 2645.000000 1815.000000"
 preserveAspectRatio="xMidYMid meet">

<g transform="translate(0.000000,1815.000000) scale(0.100000,-0.100000)"
fill="#000000" stroke="none">
<path d="M11194 18131 c-64 -29 -97 -80 -102 -157 -4 -54 -1 -70 21 -106 47
-81 163 -117 243 -75 37 19 94 81 94 102 0 13 99 15 757 15 l756 0 34 -40 c99
-115 284 -33 260 116 -21 130 -204 169 -269 57 l-20 -33 -752 0 -753 0 -30 48
c-52 84 -150 114 -239 73z m135 -107 c39 -33 42 -80 7 -120 -50 -59 -146 -22
-146 56 0 80 78 116 139 64z"/>
<path d="M14505 18131 c-143 -65 -148 -269 -9 -336 48 -23 128 -24 171 -2 34
18 78 66 88 97 6 19 15 20 297 20 l291 0 34 -40 c42 -48 94 -66 152 -50 48 13
98 66 107 115 9 48 -19 119 -58 146 -67 48 -168 30 -211 -37 l-22 -34 -291 0
-292 0 -6 23 c-7 30 -64 87 -103 103 -44 19 -100 17 -148 -5z m136 -110 c48
-49 34 -114 -30 -141 -36 -14 -73 0 -104 42 -24 32 -17 68 18 104 34 34 79 32
116 -5z"/>
<path d="M13750 18062 c-49 -26 -84 -97 -75 -153 15 -89 105 -145 191 -116
l42 14 189 -189 188 -188 951 0 952 0 6 -23 c3 -13 22 -40 42 -60 73 -73 187
-74 262 -4 76 70 76 193 1 268 -86 86 -245 61 -296 -47 l-17 -34 -930 0 -931
0 -177 178 -176 177 -4 51 c-10 116 -118 178 -218 126z m2677 -527 c30 -30 35
-40 29 -68 -14 -74 -94 -100 -147 -48 -45 45 -37 105 19 135 41 23 61 19 99
-19z"/>
<path d="M11865 17661 c-16 -4 -40 -13 -51 -19 -29 -15 -84 -79 -84 -97 0 -13
-93 -15 -707 -15 l-706 0 -34 40 c-101 118 -290 30 -259 -121 25 -127 200
-161 267 -53 l21 34 706 0 707 0 16 -39 c35 -83 151 -123 241 -83 68 30 101
80 106 158 4 54 1 70 -21 106 -39 67 -129 106 -202 89z m103 -123 c22 -21 29
-68 16 -103 -8 -19 -55 -45 -83 -45 -34 0 -81 48 -81 84 0 83 87 120 148 64z"/>
<path d="M13705 17661 c-56 -14 -94 -41 -121 -86 l-26 -45 -517 0 -516 0 -240
-240 -240 -240 -1292 0 -1293 0 -21 46 c-62 130 -254 140 -326 16 -76 -129 9
-282 157 -282 68 0 139 40 161 89 l14 31 1320 0 1320 0 240 240 240 240 498 0
c465 0 498 -1 504 -17 13 -39 58 -86 97 -104 116 -53 249 20 263 145 15 128
-101 236 -222 207z m75 -106 c58 -30 67 -90 21 -136 -47 -46 -106 -37 -136 22
-23 44 0 99 50 120 28 11 33 11 65 -6z m-4449 -484 c36 -36 37 -70 3 -110 -20
-25 -34 -31 -64 -31 -30 0 -44 6 -64 31 -14 17 -26 42 -26 56 0 36 51 83 90
83 22 0 41 -9 61 -29z"/>
<path d="M17155 17123 c-44 -23 -65 -44 -86 -85 l-19 -38 -383 0 -382 0 -17
30 c-24 42 -74 70 -128 70 -119 0 -188 -135 -118 -232 56 -80 189 -76 244 7
l16 25 387 0 387 0 17 -34 c47 -100 198 -129 283 -54 19 17 42 44 50 59 18 36
18 132 0 167 -19 36 -65 78 -99 91 -41 16 -117 13 -152 -6z m141 -107 c60 -51
20 -146 -62 -146 -48 0 -84 37 -84 85 0 76 87 112 146 61z"/>
<path d="M12626 16801 l-199 -199 -51 5 c-68 6 -113 -18 -143 -77 -28 -55 -29
-82 -2 -136 21 -45 81 -84 129 -84 13 0 43 9 66 21 58 28 89 89 79 156 l-7 46
184 184 183 183 1295 0 1294 0 236 -235 236 -235 834 0 835 -1 20 -31 c46 -72
116 -94 189 -59 140 68 92 281 -63 281 -41 0 -104 -32 -125 -64 l-16 -26 -813
0 -812 0 -235 235 -235 235 -1340 0 -1340 0 -199 -199z"/>
<path d="M15345 16631 c-42 -19 -89 -66 -100 -101 -6 -20 -14 -20 -998 -20
l-992 0 -22 34 c-43 67 -144 85 -211 37 -39 -27 -67 -98 -58 -145 12 -64 84
-126 148 -126 37 0 102 38 121 70 l18 30 992 0 992 0 23 -40 c34 -61 90 -93
160 -93 86 0 144 38 177 115 20 49 19 94 -4 143 -45 98 -151 139 -246 96z
m136 -110 c46 -46 34 -109 -25 -138 -29 -14 -39 -14 -66 -3 -63 26 -76 108
-23 150 37 29 79 26 114 -9z"/>
<path d="M8590 16591 c-48 -26 -72 -62 -77 -118 -6 -66 20 -111 80 -141 67
-34 118 -24 174 34 l43 44 1387 0 1388 0 195 -195 c123 -123 200 -193 210
-191 8 3 35 10 59 16 l44 12 -229 229 -229 229 -1417 0 -1417 0 -17 29 c-22
37 -82 71 -126 71 -18 0 -49 -8 -68 -19z"/>
<path d="M8084 16181 c-84 -21 -136 -82 -142 -170 -6 -89 32 -153 111 -186 64
-27 150 -13 200 33 11 9 28 34 38 55 l19 37 1484 0 1484 0 21 -34 c37 -60 127
-84 191 -51 86 44 107 167 39 234 -64 64 -155 60 -220 -10 l-36 -39 -1486 0
c-1299 0 -1487 2 -1487 15 0 19 -57 83 -89 99 -36 18 -90 25 -127 17z m104
-128 c31 -34 30 -87 -4 -118 -56 -52 -144 -16 -144 57 0 86 90 124 148 61z"/>
<path d="M14404 16180 c-46 -10 -96 -44 -116 -78 l-18 -30 51 -12 c42 -10 53
-10 67 2 29 25 52 28 88 13 23 -9 40 -25 46 -43 9 -23 22 -33 61 -45 l49 -16
-4 50 c-11 106 -118 182 -224 159z"/>
<path d="M18224 16180 c-51 -12 -98 -46 -123 -90 l-22 -40 -1532 0 -1532 0
-80 -80 -79 -79 27 -11 c15 -5 38 -14 51 -19 20 -8 30 -3 72 40 l48 49 1513 0
c1433 0 1514 -1 1520 -17 23 -67 103 -122 176 -123 42 0 101 22 130 48 50 45
71 143 46 209 -30 81 -131 134 -215 113z m71 -104 c63 -27 76 -97 24 -140 -39
-33 -82 -34 -114 -1 -52 51 -24 133 53 154 1 1 18 -5 37 -13z"/>
<path d="M10224 15652 c-44 -21 -81 -61 -90 -99 l-6 -23 -1084 0 -1083 0 -16
30 c-45 87 -181 94 -244 14 -47 -59 -36 -150 24 -203 61 -54 166 -40 215 29
l21 30 1083 0 1082 0 17 -34 c27 -57 79 -90 153 -94 54 -4 70 -1 106 21 59 34
88 88 88 163 0 69 -20 107 -75 150 -49 37 -131 44 -191 16z m141 -107 c57 -56
19 -145 -61 -145 -76 0 -112 89 -58 144 35 35 86 35 119 1z"/>
<path d="M12980 15639 c-1416 -89 -2666 -899 -3310 -2142 -230 -445 -372 -917
-431 -1437 -20 -176 -18 -669 5 -850 106 -870 446 -1623 1016 -2248 82 -90
156 -161 296 -284 21 -18 22 -17 395 531 l374 550 1947 1 1946 0 353 -517
c194 -285 353 -519 355 -521 8 -11 93 60 179 149 586 611 956 1358 1075 2174
33 228 44 374 44 625 1 216 -1 249 -17 277 -37 68 25 65 -1050 63 -534 0 -973
-2 -974 -4 -9 -9 319 -477 367 -526 31 -30 81 -68 112 -83 105 -53 137 -57
471 -57 l307 0 0 -62 c-1 -284 -145 -787 -317 -1108 -56 -104 -150 -250 -160
-250 -5 0 -136 188 -292 418 -157 229 -656 962 -1109 1627 -1377 2020 -1284
1887 -1303 1867 -13 -14 -2615 -3824 -2704 -3959 -15 -24 -30 -43 -34 -43 -7
0 -161 269 -204 356 -104 207 -217 524 -268 744 -92 406 -104 850 -33 1270
199 1180 1078 2195 2212 2553 479 152 1119 188 1633 91 452 -84 901 -281 1261
-552 279 -210 492 -424 780 -786 85 -107 136 -141 224 -149 100 -10 694 -9
694 1 0 5 -40 89 -89 188 -284 569 -750 1081 -1328 1457 -730 475 -1553 691
-2423 636z m1006 -4075 c387 -566 704 -1032 704 -1036 0 -5 -639 -8 -1421 -8
l-1421 0 19 29 c98 156 1400 2050 1407 2048 5 -2 325 -466 712 -1033z"/>
<path d="M17783 15610 c-85 -51 -96 -165 -23 -235 23 -22 42 -29 83 -33 63 -5
105 13 139 58 l22 30 239 0 239 0 37 -42 c35 -38 42 -42 97 -46 50 -3 65 0 94
20 71 47 88 140 39 209 -59 83 -197 77 -247 -11 l-17 -30 -240 0 -241 0 -18
31 c-39 66 -136 90 -203 49z"/>
<path d="M15670 15480 l75 -50 815 0 815 0 265 -265 265 -265 462 0 462 0 16
-29 c52 -101 208 -101 260 -1 19 37 19 103 0 140 -48 92 -178 106 -242 25
l-28 -35 -445 0 -445 0 -265 265 -265 265 -910 0 -910 0 75 -50z"/>
<path d="M7318 15121 c-79 -26 -128 -96 -128 -182 0 -170 207 -247 325 -121
14 15 28 37 31 50 l6 22 1245 0 1244 0 52 50 52 50 -1295 0 -1295 1 -19 40
c-10 23 -35 51 -56 65 -41 27 -118 39 -162 25z m111 -117 c42 -35 43 -84 2
-125 -36 -36 -70 -37 -110 -3 -25 20 -31 34 -31 64 0 30 6 44 31 64 17 14 41
26 54 26 13 0 37 -12 54 -26z"/>
<path d="M16397 14900 l52 -50 358 0 358 0 185 -185 185 -185 772 0 772 0 21
-38 c66 -117 243 -123 318 -9 22 33 27 52 27 103 0 53 -4 68 -30 105 -40 56
-85 79 -155 79 -74 0 -139 -39 -166 -99 l-18 -41 -746 0 -745 0 -185 185 -185
185 -435 0 -435 0 52 -50z m2908 -286 c19 -8 45 -55 45 -84 0 -33 -53 -80 -89
-80 -38 0 -79 36 -87 76 -8 44 35 94 81 94 18 0 41 -3 50 -6z"/>
<path d="M7109 14581 c-127 -39 -149 -203 -37 -271 65 -39 160 -17 199 46 l21
34 201 0 202 0 230 -230 230 -230 567 0 568 0 30 48 29 47 -577 3 -577 2 -230
230 -230 230 -225 0 -225 0 -17 29 c-27 48 -105 78 -159 62z"/>
<path d="M8127 14576 c-70 -25 -97 -66 -97 -145 0 -39 6 -56 26 -81 70 -83
174 -81 240 5 l26 35 639 0 638 0 36 48 37 47 -679 3 -679 2 -17 30 c-32 53
-107 78 -170 56z"/>
<path d="M6835 14136 c-77 -34 -126 -133 -105 -214 25 -99 91 -147 195 -140
75 5 123 36 152 98 l18 39 240 0 240 0 18 -39 c29 -62 77 -93 152 -98 103 -7
170 41 196 139 22 84 -36 193 -118 220 -84 27 -181 -9 -223 -83 l-21 -38 -244
0 -243 0 -26 44 c-43 74 -150 107 -231 72z m136 -115 c36 -36 37 -70 3 -110
-20 -25 -34 -31 -64 -31 -30 0 -44 6 -64 31 -14 17 -26 42 -26 56 0 36 51 83
90 83 22 0 41 -9 61 -29z m850 0 c36 -36 37 -70 3 -110 -26 -31 -68 -41 -109
-25 -19 8 -45 55 -45 84 0 33 53 80 90 80 22 0 41 -9 61 -29z"/>
<path d="M19333 14090 c-18 -10 -39 -31 -49 -45 l-16 -25 -1079 0 c-594 0
-1079 -3 -1079 -6 0 -3 12 -25 26 -50 l26 -44 1053 0 c1034 0 1054 0 1060 -19
3 -11 22 -34 41 -50 68 -60 184 -34 227 49 34 66 3 161 -63 195 -41 21 -109
19 -147 -5z"/>
<path d="M19675 13678 c-53 -19 -83 -47 -109 -101 -14 -28 -25 -46 -26 -39 0
9 -88 12 -404 12 l-405 0 -18 30 c-19 33 -85 70 -123 70 -48 0 -108 -39 -129
-84 -26 -52 -26 -79 -2 -133 22 -47 79 -83 131 -83 44 0 107 35 125 70 l16 30
404 0 c317 0 405 3 405 13 1 6 12 -12 26 -41 35 -73 87 -106 163 -107 75 0
126 26 162 84 78 122 0 275 -146 287 -22 2 -53 -2 -70 -8z m114 -114 c25 -20
31 -34 31 -64 0 -30 -6 -44 -31 -64 -17 -14 -41 -26 -54 -26 -13 0 -37 12 -54
26 -25 20 -31 34 -31 64 0 30 6 44 31 64 17 14 41 26 54 26 13 0 37 -12 54
-26z"/>
<path d="M6783 13629 c-30 -15 -48 -33 -62 -63 -26 -53 -26 -79 0 -132 22 -47
82 -84 133 -84 43 0 95 29 119 66 l22 34 1027 0 1027 0 21 46 c11 26 20 48 20
50 0 2 -472 4 -1048 4 l-1048 0 -18 31 c-19 33 -84 68 -126 69 -14 0 -44 -9
-67 -21z"/>
<path d="M17366 13528 c3 -13 13 -35 21 -50 l14 -28 297 0 297 0 255 -255 255
-255 517 0 c419 0 518 -2 518 -13 0 -7 15 -28 34 -46 65 -63 180 -50 226 24
42 68 17 175 -49 210 -67 34 -169 9 -201 -50 l-13 -25 -496 0 -496 0 -255 255
-255 255 -338 0 -338 0 7 -22z"/>
<path d="M6555 13166 c-165 -76 -126 -336 53 -354 90 -8 163 32 197 107 l18
41 886 0 886 0 107 -107 c72 -72 109 -102 112 -92 3 8 10 32 15 54 l11 40
-102 102 -103 103 -912 0 -912 0 -16 29 c-27 54 -80 85 -149 88 -37 2 -73 -2
-91 -11z m140 -111 c52 -51 16 -145 -55 -145 -43 0 -69 16 -85 53 -36 86 74
159 140 92z"/>
<path d="M17770 13152 c-19 -10 -48 -39 -65 -65 l-30 -46 -62 0 -61 -1 16 -50
16 -50 46 0 c44 0 47 -2 64 -40 38 -87 158 -125 251 -80 125 61 135 246 16
321 -55 35 -136 40 -191 11z m154 -113 c14 -17 26 -42 26 -56 0 -36 -51 -83
-90 -83 -39 0 -90 47 -90 83 0 14 12 39 26 56 20 25 34 31 64 31 30 0 44 -6
64 -31z"/>
<path d="M19804 12691 c-39 -18 -84 -66 -97 -103 -6 -17 -64 -18 -1018 -18
l-1011 0 7 -42 c4 -24 9 -46 12 -50 2 -5 453 -8 1003 -8 l998 0 25 -43 c90
-154 330 -100 345 77 12 146 -133 249 -264 187z m137 -110 c36 -37 38 -79 5
-117 -51 -60 -146 -21 -146 58 0 82 83 116 141 59z"/>
<path d="M6505 12611 c-53 -33 -69 -58 -72 -119 -3 -44 0 -64 16 -89 54 -86
201 -88 249 -2 l17 29 675 0 675 0 17 -29 c21 -38 72 -64 124 -64 147 0 198
196 72 273 -64 39 -164 14 -202 -51 l-17 -29 -668 0 -669 0 -26 35 c-50 65
-130 84 -191 46z"/>
<path d="M6448 12151 c-82 -26 -129 -84 -136 -166 -6 -71 24 -136 81 -173 58
-38 146 -38 205 1 23 15 51 45 62 67 l20 40 1003 2 1002 3 3 48 3 47 -1005 0
-1004 0 -25 43 c-40 68 -139 110 -209 88z m101 -117 c25 -20 31 -34 31 -64 0
-30 -6 -44 -31 -64 -17 -14 -41 -26 -54 -26 -13 0 -37 12 -54 26 -62 52 -23
150 61 153 9 1 30 -11 47 -25z"/>
<path d="M19824 12106 c-17 -8 -44 -30 -59 -50 l-27 -36 -989 0 -989 0 0 -50
0 -50 987 0 986 0 34 -40 c39 -45 93 -66 146 -56 135 25 160 210 37 274 -50
25 -81 27 -126 8z"/>
<path d="M6413 11549 c-44 -28 -66 -80 -61 -141 4 -40 12 -57 41 -85 65 -66
180 -54 228 23 l21 34 1021 0 1022 0 -3 50 -4 50 -1022 0 -1023 0 -11 25 c-28
62 -143 86 -209 44z"/>
<path d="M18044 11551 c-84 -51 -119 -163 -76 -247 24 -48 47 -69 95 -89 97
-40 216 11 250 108 6 16 50 17 729 17 l723 0 20 -37 c51 -93 157 -128 250 -83
123 60 140 232 30 316 -30 22 -50 29 -101 32 -54 4 -70 1 -106 -21 -25 -15
-53 -42 -66 -66 l-23 -41 -730 0 c-634 0 -729 2 -729 15 0 20 -57 83 -91 101
-41 21 -137 18 -175 -5z m154 -104 c53 -48 12 -147 -61 -147 -94 0 -121 128
-35 165 37 15 65 10 96 -18z m1827 -10 c49 -71 -39 -168 -116 -127 -27 15 -51
65 -43 94 7 29 41 62 69 68 29 6 73 -11 90 -35z"/>
<path d="M17736 11088 l-6 -62 67 -68 67 -68 935 0 934 0 36 -39 c100 -108
261 -49 261 96 0 47 -29 96 -72 124 -25 15 -45 19 -84 16 -58 -4 -95 -27 -121
-74 l-18 -33 -905 0 -905 0 -85 85 c-47 47 -87 85 -91 85 -3 0 -9 -28 -13 -62z"/>
<path d="M6505 11061 c-53 -33 -69 -58 -72 -119 -3 -44 0 -64 16 -89 56 -89
200 -88 253 3 l20 34 328 0 328 0 20 -34 c56 -95 209 -90 256 8 62 131 -69
262 -200 200 -19 -9 -42 -29 -51 -45 l-17 -29 -337 0 -337 0 -16 25 c-40 61
-131 83 -191 46z"/>
<path d="M7945 10730 l-240 -240 -446 0 -447 0 -6 23 c-7 29 -48 72 -89 94
-43 22 -122 22 -171 -2 -121 -58 -129 -246 -14 -322 34 -23 53 -28 103 -28 77
0 133 33 161 94 l19 40 470 1 470 0 240 240 240 240 252 0 c282 0 262 -6 247
69 l-6 31 -272 0 -271 0 -240 -240z m-1254 -229 c41 -41 40 -90 -2 -125 -35
-30 -58 -32 -98 -11 -54 28 -59 98 -10 140 40 33 74 32 110 -4z"/>
<path d="M8346 10668 c-54 -15 -110 -74 -124 -131 -19 -74 2 -143 57 -190 93
-78 228 -54 283 51 l23 42 129 0 c107 0 127 2 123 14 -3 8 -9 31 -13 50 l-6
36 -118 0 c-110 0 -119 1 -125 20 -9 29 -53 79 -84 94 -38 20 -101 26 -145 14z
m95 -103 c55 -29 64 -92 20 -136 -35 -35 -77 -38 -114 -9 -51 40 -42 120 17
146 40 17 41 17 77 -1z"/>
<path d="M19761 10619 c-52 -16 -79 -38 -107 -85 l-26 -44 -779 0 -779 0 -43
44 c-52 55 -97 66 -162 41 -145 -55 -115 -265 40 -283 52 -5 113 24 139 69
l17 29 784 0 785 0 20 -40 c31 -61 90 -95 165 -95 50 0 69 5 102 27 113 74
108 252 -7 317 -45 25 -105 33 -149 20z m110 -118 c20 -20 29 -39 29 -61 0
-37 -47 -90 -80 -90 -29 0 -76 26 -84 45 -16 41 -6 83 25 109 40 34 74 33 110
-3z"/>
<path d="M19563 10049 c-18 -11 -38 -33 -45 -50 l-13 -29 -1029 -2 -1028 -3
-19 -47 -19 -48 1046 0 1046 0 37 -41 c32 -37 43 -42 90 -47 96 -9 161 48 161
142 0 92 -54 146 -145 146 -33 0 -61 -7 -82 -21z"/>
<path d="M6773 9950 c-126 -77 -68 -270 82 -270 48 0 100 29 123 70 l17 30
1042 0 1041 0 -21 50 -21 50 -1018 0 -1018 0 -43 45 c-41 43 -47 45 -98 45
-36 0 -65 -7 -86 -20z"/>
<path d="M6864 9430 c-100 -50 -132 -177 -69 -272 80 -121 287 -96 329 40 l7
22 1124 0 1125 0 -28 45 -27 45 -1095 0 -1095 0 -27 49 c-46 84 -154 115 -244
71z m147 -109 c36 -36 37 -70 3 -110 -20 -25 -34 -31 -64 -31 -30 0 -44 6 -64
31 -14 17 -26 42 -26 56 0 36 51 83 90 83 22 0 41 -9 61 -29z"/>
<path d="M19448 9409 c-37 -19 -88 -81 -88 -106 0 -10 -154 -13 -768 -13
l-767 0 -270 -270 -270 -270 -279 0 -278 0 -39 -42 c-21 -24 -38 -46 -39 -50
0 -5 152 -8 338 -8 l337 0 270 270 270 270 746 0 745 0 17 -34 c27 -57 79 -90
152 -94 80 -5 135 22 172 85 29 49 33 134 10 180 -20 37 -65 79 -100 92 -44
17 -118 12 -159 -10z m148 -103 c60 -51 20 -146 -62 -146 -75 0 -108 79 -58
139 33 39 80 42 120 7z"/>
<path d="M17280 9383 c-23 -8 -80 -65 -80 -80 0 -9 -14 -13 -44 -13 -41 0 -45
-3 -75 -47 l-31 -48 74 -3 c66 -3 74 -5 86 -28 32 -58 134 -83 201 -49 95 50
92 213 -5 259 -33 16 -96 20 -126 9z"/>
<path d="M11377 8893 c-197 -283 -377 -555 -372 -563 9 -15 236 -156 362 -225
402 -219 887 -368 1403 -432 205 -25 715 -25 920 0 607 75 1137 258 1575 544
84 55 196 135 229 164 6 5 -356 542 -393 582 -4 4 -64 -26 -134 -67 -681 -406
-1394 -568 -2110 -480 -173 21 -439 76 -597 124 -320 97 -534 206 -802 410
l-26 20 -55 -77z"/>
<path d="M19180 8918 c-30 -15 -55 -39 -75 -70 l-30 -47 -425 0 -425 -1 -260
-260 -260 -260 -715 0 -715 -1 -55 -49 -55 -49 790 -1 790 0 260 260 260 260
405 0 405 0 23 -40 c58 -102 195 -127 283 -53 109 92 80 262 -53 318 -52 21
-96 19 -148 -7z m141 -107 c71 -71 -10 -183 -99 -137 -84 43 -51 163 46 165
13 1 36 -12 53 -28z"/>
<path d="M7230 8852 c-99 -49 -109 -189 -18 -253 47 -34 124 -32 171 4 20 15
39 36 42 47 6 20 15 20 1181 20 646 0 1174 3 1174 6 0 3 -17 25 -37 50 l-37
44 -1132 0 -1132 0 -27 36 c-47 61 -119 80 -185 46z"/>
<path d="M7355 8422 c-40 -25 -83 -77 -91 -108 -4 -14 -4 -49 -2 -79 15 -175
246 -225 341 -73 l30 48 268 0 267 0 20 -33 c37 -63 135 -86 200 -47 66 41 90
124 56 196 -46 96 -195 103 -255 11 l-21 -32 -272 3 c-151 2 -272 7 -274 12
-8 23 -50 75 -75 94 -40 30 -151 34 -192 8z m120 -86 c63 -27 76 -97 24 -140
-39 -33 -82 -34 -114 -1 -53 52 -24 137 53 154 1 1 18 -5 37 -13z"/>
<path d="M18085 8365 c-22 -8 -41 -15 -42 -15 -1 0 -14 -17 -28 -37 -66 -98 4
-233 120 -233 47 0 94 26 126 69 l23 31 242 0 242 0 26 -35 c66 -86 170 -88
240 -5 33 40 36 118 6 167 -52 86 -196 88 -247 3 l-17 -30 -251 0 -250 0 -17
29 c-30 54 -109 79 -173 56z"/>
<path d="M8520 8065 l-225 -225 -175 0 c-159 0 -176 2 -187 18 -16 27 -75 52
-121 52 -100 0 -174 -120 -127 -209 27 -54 71 -81 129 -81 65 0 113 28 139 83
l19 37 181 0 182 0 225 225 225 225 737 0 c406 0 738 2 738 4 0 3 -21 25 -47
50 l-48 46 -710 0 -710 0 -225 -225z"/>
<path d="M18552 7956 c-37 -17 -80 -61 -93 -93 l-9 -23 -1324 0 -1324 0 -14
21 -14 22 -42 -27 c-37 -23 -41 -29 -32 -46 23 -44 -23 -111 -77 -112 -17 -1
-43 7 -59 16 -29 17 -31 17 -67 -4 -21 -13 -36 -27 -34 -33 2 -6 20 -24 41
-41 32 -26 47 -31 104 -34 87 -4 136 22 172 91 l25 47 1320 0 1320 0 16 -39
c9 -21 33 -51 54 -67 31 -23 49 -29 104 -32 80 -4 122 15 166 77 57 80 33 203
-51 261 -44 30 -133 38 -182 16z m132 -108 c39 -35 43 -78 12 -116 -43 -50
-113 -46 -141 9 -22 42 -18 67 14 100 36 36 79 38 115 7z"/>
<path d="M8672 7890 c-66 -41 -90 -124 -56 -196 46 -97 209 -100 259 -4 l16
30 1021 0 1022 0 -81 50 -81 50 -944 0 -944 0 -17 29 c-34 58 -133 79 -195 41z"/>
<path d="M11340 7426 l155 -156 245 0 245 1 -150 49 c-126 42 -162 50 -225 50
l-76 0 -44 46 c-42 43 -83 66 -250 141 l-55 24 155 -155z"/>
<path d="M8078 7500 c-117 -37 -172 -163 -118 -270 31 -61 90 -95 164 -95 76
0 125 28 162 91 l26 44 1123 0 1123 0 12 -29 c15 -38 56 -76 102 -95 92 -39
195 4 239 99 61 133 -57 284 -202 260 -51 -9 -111 -54 -133 -99 l-17 -36
-1127 0 -1127 1 -18 39 c-31 67 -138 113 -209 90z m101 -116 c25 -20 31 -34
31 -64 0 -30 -6 -44 -31 -64 -17 -14 -41 -26 -54 -26 -13 0 -37 12 -54 26 -25
20 -31 34 -31 64 0 30 6 44 31 64 17 14 41 26 54 26 13 0 37 -12 54 -26z
m2629 -10 c31 -36 29 -79 -7 -115 -69 -68 -177 3 -140 93 25 60 103 72 147 22z"/>
<path d="M18072 7443 c-12 -2 -38 -20 -58 -39 l-37 -34 -1606 0 c-1604 0
-1607 0 -1669 -21 -34 -11 -62 -24 -62 -28 0 -4 10 -17 23 -29 l23 -22 1640 0
1639 0 20 -37 c27 -49 64 -74 116 -80 55 -5 105 19 136 66 43 63 23 164 -39
205 -25 17 -91 27 -126 19z"/>
<path d="M13385 7004 c-42 -21 -71 -51 -85 -85 l-12 -29 -998 0 -997 0 -13 25
c-34 63 -139 86 -205 45 -62 -38 -83 -131 -47 -199 50 -94 200 -95 255 -2 l18
31 989 0 990 0 20 -39 c11 -22 36 -52 57 -68 32 -25 45 -28 109 -28 66 0 76 3
111 31 49 39 73 87 73 146 0 113 -74 188 -187 188 -26 0 -61 -7 -78 -16z m132
-99 c32 -22 43 -65 28 -102 -37 -87 -165 -62 -165 32 0 69 80 110 137 70z"/>
<path d="M17669 6991 c-27 -17 -52 -43 -63 -65 l-17 -36 -1373 0 -1374 0 -16
25 c-61 93 -209 84 -258 -15 -34 -67 -13 -145 51 -187 67 -45 170 -22 209 47
l17 30 1370 0 1370 0 27 -49 c66 -120 246 -122 320 -4 34 56 33 145 -5 201
-55 84 -171 108 -258 53z m165 -102 c14 -17 26 -41 26 -54 0 -13 -12 -37 -26
-54 -20 -25 -34 -31 -64 -31 -30 0 -44 6 -64 31 -14 17 -26 41 -26 54 0 13 12
37 26 54 20 25 34 31 64 31 30 0 44 -6 64 -31z"/>
<path d="M14014 6970 c-27 -11 -72 -65 -80 -96 -4 -14 -4 -44 -1 -68 l6 -42
-182 -182 -182 -182 -1300 0 -1300 0 -235 235 -235 235 -836 0 -837 0 -20 34
c-29 49 -73 69 -139 64 -142 -12 -183 -193 -61 -268 65 -39 161 -18 202 45
l16 25 818 0 817 0 235 -235 235 -235 1340 0 1340 0 198 198 198 199 53 -5
c87 -7 144 38 161 124 8 47 -24 118 -67 144 -34 21 -105 26 -144 10z"/>
<path d="M9145 6522 c-138 -65 -150 -245 -23 -329 47 -32 134 -36 184 -10 35
18 79 66 89 97 6 20 15 20 430 20 l423 0 25 -43 c53 -89 168 -118 259 -64 82
48 113 160 68 247 -65 128 -265 128 -330 0 l-20 -40 -423 0 -422 0 -20 37
c-48 88 -153 126 -240 85z m136 -111 c46 -46 34 -109 -25 -138 -29 -14 -39
-14 -66 -3 -63 26 -76 108 -23 150 37 29 79 26 114 -9z m1208 3 c60 -50 25
-148 -52 -148 -83 0 -119 95 -56 148 17 14 41 26 54 26 13 0 37 -12 54 -26z"/>
<path d="M16972 6413 c-18 -9 -42 -29 -53 -44 l-20 -29 -1277 0 -1277 0 -235
-235 -235 -235 -485 0 -485 1 -18 39 c-40 85 -165 121 -252 72 -86 -49 -121
-162 -76 -250 66 -130 265 -131 331 -2 l20 40 503 0 502 0 240 240 240 240
1246 0 1246 0 24 -37 c37 -57 71 -77 129 -77 86 0 145 61 145 148 -2 112 -112
179 -213 129z m-4184 -539 c33 -37 30 -86 -9 -118 -17 -14 -41 -26 -54 -26
-38 0 -85 46 -85 84 0 85 92 122 148 60z"/>
<path d="M14480 5998 c-126 -36 -175 -190 -93 -296 47 -63 144 -89 216 -58 40
17 87 63 99 99 l10 27 716 0 717 0 22 -34 c43 -67 144 -85 211 -37 39 27 67
98 58 146 -16 81 -105 137 -183 115 -45 -12 -63 -26 -87 -62 l-18 -28 -718 0
-718 0 -12 30 c-17 41 -71 87 -117 99 -44 13 -56 13 -103 -1z m90 -103 c58
-30 67 -90 21 -136 -46 -46 -106 -37 -136 21 -20 38 -11 73 27 105 34 29 48
31 88 10z"/>
<path d="M10054 5959 c-92 -26 -132 -148 -75 -228 58 -81 194 -78 243 6 l20
33 936 0 937 0 167 -167 166 -166 -5 -52 c-6 -60 10 -99 57 -139 40 -33 118
-36 167 -6 89 54 88 194 -2 250 -29 18 -47 22 -90 18 l-54 -5 -183 184 -183
183 -954 0 -954 0 -34 40 c-21 24 -48 43 -71 50 -42 11 -46 11 -88 -1z"/>
<path d="M11895 5504 c-42 -21 -71 -51 -85 -85 l-12 -29 -253 0 -252 0 -13 25
c-33 61 -130 84 -199 47 -65 -35 -90 -125 -55 -198 46 -97 201 -100 257 -5
l18 31 245 0 244 0 9 -23 c15 -38 63 -89 98 -103 45 -19 121 -17 162 4 19 9
48 34 65 55 28 35 31 45 31 111 0 64 -3 77 -28 109 -53 70 -161 98 -232 61z
m140 -109 c54 -53 16 -145 -60 -145 -49 0 -85 36 -85 85 0 49 36 85 85 85 25
0 44 -8 60 -25z"/>
<path d="M15065 5505 c-35 -18 -95 -82 -95 -102 0 -11 -135 -13 -768 -13
l-769 0 -11 25 c-28 61 -134 85 -200 45 -88 -54 -96 -166 -18 -239 19 -18 41
-26 79 -29 66 -5 110 15 139 64 l20 34 759 0 759 0 13 -33 c19 -44 79 -95 122
-103 93 -17 174 19 217 96 29 52 21 146 -15 194 -53 69 -160 97 -232 61z m140
-110 c54 -53 16 -145 -60 -145 -49 0 -85 36 -85 85 0 49 36 85 85 85 25 0 44
-8 60 -25z"/>
<path d="M859 3349 c-456 -37 -773 -345 -845 -819 -42 -282 12 -577 148 -808
50 -86 189 -221 282 -275 98 -57 217 -101 333 -123 117 -22 328 -22 453 0 187
33 422 130 558 230 l62 46 0 400 0 400 -430 0 -430 0 0 -165 0 -165 230 0 230
0 0 -128 0 -127 -51 -34 c-218 -142 -478 -171 -679 -74 -73 35 -179 142 -218
218 -112 224 -120 575 -18 792 58 122 155 211 283 260 92 35 270 44 358 18
130 -37 221 -111 275 -223 18 -37 34 -69 36 -70 3 -4 387 67 392 72 1 2 -9 39
-22 82 -61 191 -203 349 -384 424 -136 57 -365 85 -563 69z"/>
<path d="M15380 3349 c-223 -22 -403 -109 -552 -267 -116 -123 -187 -267 -229
-462 -32 -149 -33 -450 -2 -590 75 -342 282 -585 580 -680 199 -64 454 -58
648 15 65 24 176 92 226 137 46 42 116 135 152 200 31 56 102 237 95 243 -2 2
-41 14 -88 29 -47 14 -133 41 -191 60 l-107 33 -26 -80 c-74 -224 -215 -337
-422 -337 -177 0 -332 97 -406 255 -78 168 -98 514 -42 731 64 249 239 383
486 372 78 -3 104 -9 160 -35 37 -17 87 -50 112 -73 46 -43 116 -164 116 -203
0 -15 5 -18 22 -13 13 3 102 24 198 47 96 23 177 43 179 45 8 8 -54 163 -91
227 -145 249 -459 382 -818 346z"/>
<path d="M2223 2633 c4 -734 9 -806 57 -935 47 -126 159 -247 293 -315 156
-78 537 -103 752 -48 170 43 329 162 393 295 75 155 82 243 82 1043 l0 647
-199 0 -200 0 -3 -707 c-4 -815 0 -775 -94 -870 -67 -67 -144 -93 -279 -93
-243 0 -373 112 -395 341 -5 52 -10 372 -10 712 l0 617 -201 0 -201 0 5 -687z"/>
<path d="M4220 2330 l0 -990 755 0 755 0 0 165 0 165 -550 0 -550 0 0 270 0
270 495 0 495 0 0 170 0 170 -495 0 -495 0 0 220 0 220 535 0 535 0 0 165 0
165 -740 0 -740 0 0 -990z"/>
<path d="M6070 2331 l0 -991 200 0 200 0 2 413 3 412 108 -2 c160 -3 205 -19
287 -101 55 -57 292 -392 471 -669 l34 -53 239 0 c186 0 237 3 233 13 -10 25
-320 513 -374 590 -65 89 -157 180 -240 234 l-55 37 68 14 c202 41 357 163
415 328 44 125 45 284 3 410 -41 122 -137 233 -248 285 -126 59 -156 61 -778
66 l-568 4 0 -990z m1057 635 c65 -23 101 -55 130 -113 23 -48 25 -62 21 -134
-4 -68 -9 -86 -34 -122 -69 -98 -118 -109 -489 -111 l-280 -1 -3 240 c-1 132
0 246 3 254 8 21 591 10 652 -13z"/>
<path d="M8080 2330 l0 -990 200 0 200 0 0 417 0 416 108 -7 c244 -14 260 -30
637 -599 l150 -227 242 0 242 0 -156 248 c-85 136 -179 281 -207 322 -67 99
-170 206 -245 255 -33 22 -61 42 -61 45 0 4 28 12 62 19 215 44 367 175 424
366 13 43 18 92 18 175 0 98 -4 126 -26 188 -62 174 -179 285 -346 327 -117
29 -235 35 -734 35 l-508 0 0 -990z m1049 636 c105 -38 151 -108 151 -228 -1
-113 -44 -186 -134 -223 -51 -22 -224 -34 -468 -35 l-198 0 0 256 0 257 303
-6 c242 -4 311 -8 346 -21z"/>
<path d="M10259 2333 l-384 -988 209 -3 c150 -2 212 1 217 9 4 6 42 108 84
225 l78 214 396 -2 396 -3 85 -222 85 -223 218 0 c214 0 218 0 212 20 -4 11
-181 456 -395 988 l-388 967 -214 3 -214 2 -385 -987z m735 143 c69 -187 126
-343 126 -348 0 -4 -119 -8 -265 -8 -146 0 -265 4 -265 8 0 6 225 630 256 712
7 18 -10 60 148 -364z"/>
<path d="M13201 3298 c-13 -33 -752 -1930 -758 -1945 -4 -10 42 -13 208 -13
l214 0 81 223 80 222 396 3 396 2 37 -97 c21 -54 60 -155 87 -225 l50 -128
218 0 218 0 -396 990 -396 990 -213 0 c-212 0 -214 0 -222 -22z m355 -813 c72
-195 129 -357 126 -360 -3 -3 -122 -5 -264 -5 -200 0 -258 3 -258 13 0 18 254
716 259 711 3 -3 64 -164 137 -359z"/>
<path d="M17195 3278 c-24 -61 -702 -1800 -730 -1875 l-24 -63 213 0 213 0 80
223 81 222 397 0 398 0 85 -222 85 -223 218 0 219 0 -19 48 c-10 26 -189 471
-396 990 l-377 942 -213 0 -213 0 -17 -42z m359 -785 c71 -192 131 -354 134
-360 3 -10 -53 -13 -262 -13 -189 0 -266 3 -266 11 0 18 253 709 259 709 4 0
64 -156 135 -347z"/>
<path d="M18640 2329 l0 -990 493 4 c531 4 539 5 685 62 161 64 269 165 361
337 51 95 87 201 106 319 19 120 20 392 1 519 -54 352 -239 605 -510 695 -115
38 -222 45 -693 45 l-443 0 0 -991z m890 641 c173 -33 278 -140 332 -338 18
-66 21 -108 22 -292 1 -245 -12 -334 -68 -455 -81 -174 -205 -219 -591 -213
l-180 3 -3 645 c-1 355 0 651 3 659 5 12 40 13 219 8 118 -4 237 -12 266 -17z"/>
<path d="M20640 2330 l0 -990 755 0 755 0 0 165 0 165 -552 2 -553 3 -3 268
-2 267 500 0 500 0 0 170 0 170 -500 0 -500 0 2 218 3 217 533 3 532 2 0 165
0 165 -735 0 -735 0 0 -990z"/>
<path d="M22490 2330 l0 -990 185 0 185 0 1 768 0 767 194 -765 c107 -421 194
-766 195 -767 0 -2 87 -3 193 -3 l194 0 192 763 c106 419 195 764 197 766 2 2
4 -341 4 -762 l0 -767 185 0 185 0 0 990 0 990 -299 0 c-277 0 -300 -1 -305
-17 -3 -10 -82 -310 -176 -668 -94 -357 -172 -650 -174 -652 -3 -4 -1 -12
-197 725 l-162 612 -299 0 -298 0 0 -990z"/>
<path d="M24600 3315 c0 -2 162 -261 360 -574 l360 -569 0 -416 0 -416 200 0
200 0 0 415 0 415 364 575 365 575 -232 0 -232 0 -224 -385 c-124 -212 -228
-385 -231 -385 -4 0 -110 173 -236 385 l-228 385 -233 0 c-128 0 -233 -2 -233
-5z"/>
<path d="M2753 685 c-66 -18 -117 -50 -167 -105 -64 -71 -81 -120 -81 -235 0
-90 3 -105 28 -153 99 -187 329 -247 510 -132 59 37 66 54 37 86 -30 31 -43
30 -93 -6 -126 -89 -290 -47 -361 93 -34 66 -39 147 -13 209 21 51 85 118 132
139 81 37 191 20 266 -42 l27 -21 31 23 c46 34 40 54 -29 98 -92 59 -183 74
-287 46z"/>
<path d="M4703 688 c-14 -17 -323 -658 -323 -669 0 -5 22 -9 50 -9 l49 0 28
58 28 57 183 3 183 2 26 -55 c28 -64 34 -68 92 -63 l41 3 -164 340 c-90 186
-168 341 -173 342 -6 2 -15 -2 -20 -9z m87 -324 c39 -81 70 -148 70 -150 0 -2
-63 -4 -140 -4 -77 0 -140 3 -140 7 0 9 133 293 137 293 2 0 35 -66 73 -146z"/>
<path d="M7179 687 c-100 -28 -190 -105 -233 -196 -30 -66 -30 -216 1 -283 30
-66 105 -143 172 -175 49 -25 68 -28 151 -28 83 0 102 3 151 28 67 32 142 109
172 175 32 69 32 218 -1 284 -59 119 -170 195 -298 203 -40 3 -88 0 -115 -8z
m196 -108 c52 -24 108 -83 130 -135 19 -47 19 -144 0 -192 -32 -76 -118 -143
-202 -157 -96 -16 -221 56 -264 150 -26 56 -25 153 1 208 59 126 212 184 335
126z"/>
<path d="M12990 691 c-93 -30 -140 -92 -140 -182 0 -96 55 -150 209 -207 116
-42 157 -100 115 -160 -50 -72 -153 -69 -252 6 -36 28 -53 25 -79 -15 -12 -18
-11 -24 11 -49 39 -48 111 -78 194 -82 63 -4 79 -1 128 23 98 48 139 148 95
237 -25 51 -58 75 -176 127 -106 48 -140 72 -149 105 -15 62 59 124 133 112
19 -3 57 -19 84 -36 55 -34 68 -33 93 5 16 25 16 27 -6 50 -48 51 -193 88
-260 66z"/>
<path d="M18258 687 c-94 -27 -175 -98 -220 -195 -29 -59 -30 -69 -26 -160 3
-84 8 -104 33 -151 59 -107 161 -172 285 -179 94 -5 171 15 232 61 50 38 54
62 15 91 -23 17 -31 18 -45 8 -83 -58 -107 -67 -177 -66 -85 0 -136 24 -189
86 -91 106 -82 251 21 350 50 49 99 68 173 68 62 0 89 -10 156 -55 l36 -24 29
21 c38 29 37 50 -6 82 -85 65 -217 91 -317 63z"/>
<path d="M19927 686 c-92 -26 -195 -117 -228 -202 -68 -179 8 -373 179 -456
70 -33 198 -37 274 -8 76 28 159 104 195 178 24 50 28 69 28 147 0 76 -4 99
-26 146 -58 124 -169 199 -302 205 -41 2 -93 -2 -120 -10z m212 -111 c150 -75
188 -266 78 -391 -72 -82 -160 -109 -262 -80 -148 44 -226 218 -156 354 25 47
86 107 131 126 56 24 152 20 209 -9z"/>
<path d="M21459 687 c-103 -29 -181 -96 -228 -197 -35 -74 -37 -210 -4 -282
30 -66 105 -143 172 -175 50 -25 67 -28 156 -28 84 0 107 4 147 23 220 109
273 392 104 565 -85 88 -230 127 -347 94z m197 -106 c48 -22 106 -79 129 -127
100 -210 -136 -442 -342 -335 -189 97 -190 361 -1 455 64 32 152 35 214 7z"/>
<path d="M22384 691 c-93 -23 -195 -108 -237 -199 -18 -38 -22 -65 -22 -147 0
-117 19 -166 90 -240 67 -69 134 -98 235 -103 101 -5 172 17 239 74 l42 36 -3
97 -3 96 -132 3 -133 3 0 -46 0 -45 86 0 85 0 -3 -37 c-3 -33 -9 -41 -44 -60
-165 -91 -364 32 -364 223 0 74 18 121 68 176 49 55 102 78 180 78 61 0 112
-18 175 -63 14 -10 22 -9 45 3 45 26 40 54 -15 94 -77 56 -195 79 -289 57z"/>
<path d="M23593 688 c-18 -23 -323 -660 -323 -675 0 -11 11 -13 48 -11 46 3
47 4 76 61 l28 57 187 0 186 0 30 -58 c30 -56 31 -57 78 -60 26 -2 47 1 47 7
0 18 -326 685 -336 688 -6 2 -16 -2 -21 -9z m88 -324 c38 -80 69 -147 69 -150
0 -2 -63 -4 -141 -4 -130 0 -141 1 -135 18 13 32 131 282 134 282 2 0 35 -66
73 -146z"/>
<path d="M3330 349 l0 -340 48 3 47 3 3 108 3 107 82 0 82 -1 74 -109 74 -110
49 0 c26 0 48 4 48 8 0 5 -34 57 -75 117 -42 59 -75 108 -73 109 67 29 122 95
137 166 22 102 -27 209 -118 257 -41 21 -56 23 -213 23 l-168 0 0 -341z m329
233 c99 -50 105 -182 11 -236 -27 -16 -58 -22 -137 -24 l-103 -4 0 141 0 141
98 0 c73 0 106 -4 131 -18z"/>
<path d="M4070 350 l0 -340 45 0 45 0 0 340 0 340 -45 0 -45 0 0 -340z"/>
<path d="M5280 350 l0 -340 45 0 45 0 0 240 c0 132 3 240 8 239 4 0 77 -81
162 -180 257 -299 257 -299 296 -299 l34 0 0 341 0 340 -47 -3 -48 -3 -5 -244
-5 -244 -198 232 c-239 279 -222 261 -258 261 l-29 0 0 -340z"/>
<path d="M6120 350 l0 -342 173 4 c163 3 175 5 222 30 90 47 142 111 171 212
44 158 -29 329 -173 401 -56 28 -64 30 -225 33 l-168 4 0 -342z m346 222 c152
-78 179 -288 52 -409 -48 -46 -104 -63 -214 -63 l-94 0 0 243 c0 134 3 247 8
251 4 5 52 6 107 4 76 -4 110 -10 141 -26z"/>
<path d="M8222 348 l3 -343 220 0 220 0 0 45 0 45 -172 3 -173 2 0 100 0 99
103 3 102 3 0 40 0 40 -108 3 -108 3 3 102 3 102 178 3 177 2 0 45 0 45 -225
0 -225 0 2 -342z"/>
<path d="M8880 686 c0 -3 52 -79 116 -171 l116 -165 -18 -28 c-9 -15 -59 -86
-111 -159 -51 -72 -96 -139 -99 -147 -5 -13 3 -16 49 -16 l55 0 93 132 c85
120 94 130 106 112 7 -10 48 -68 91 -129 l78 -110 53 -3 c48 -3 53 -1 49 15
-3 10 -53 86 -111 170 -59 83 -107 156 -107 162 0 6 49 79 108 163 59 84 111
159 116 166 5 9 -7 12 -51 12 l-59 0 -88 -125 c-48 -69 -90 -125 -94 -125 -4
0 -27 31 -52 67 -25 37 -64 93 -87 125 l-43 58 -55 0 c-30 0 -55 -2 -55 -4z"/>
<path d="M9682 348 l3 -343 40 0 40 0 5 110 5 110 125 5 c141 7 168 16 222 80
77 89 78 210 1 300 -61 71 -92 80 -281 80 l-162 0 2 -342z m311 238 c89 -37
116 -142 56 -211 -39 -44 -85 -57 -192 -53 l-82 3 -3 124 c-1 69 0 131 2 138
7 18 175 18 219 -1z"/>
<path d="M10397 684 c-4 -4 -7 -154 -7 -334 0 -240 3 -329 12 -338 17 -17 419
-17 436 0 7 7 12 24 12 38 0 47 -12 50 -192 50 l-169 0 3 98 3 97 103 3 103 3
-3 42 -3 42 -102 3 -103 3 0 104 0 105 178 2 177 3 0 40 0 40 -221 3 c-121 1
-223 -1 -227 -4z"/>
<path d="M11092 348 l3 -343 33 -3 c55 -5 62 8 62 124 l0 104 83 0 82 -1 60
-90 c85 -128 96 -139 145 -139 27 0 40 4 40 13 0 8 -33 61 -74 119 l-74 106
43 30 c80 56 120 160 96 249 -16 59 -68 124 -121 151 -41 20 -58 22 -212 22
l-168 0 2 -342z m328 234 c43 -21 80 -75 80 -116 0 -41 -28 -95 -63 -120 -23
-17 -47 -21 -138 -24 l-109 -4 0 141 0 141 98 0 c72 0 106 -4 132 -18z"/>
<path d="M11784 676 c-3 -8 -4 -27 -2 -43 l3 -28 100 -5 100 -5 3 -290 c2
-308 2 -305 52 -305 49 0 50 5 50 312 l0 287 98 3 97 3 3 43 3 42 -251 0
c-207 0 -252 -2 -256 -14z"/>
<path d="M12512 348 l3 -343 40 0 40 0 3 343 2 342 -45 0 -45 0 2 -342z"/>
<path d="M13517 684 c-4 -4 -7 -154 -7 -334 0 -240 3 -329 12 -338 14 -14 414
-17 436 -3 8 5 12 23 10 47 l-3 39 -178 3 -178 2 3 98 3 97 103 3 102 3 0 44
0 45 -105 0 -105 0 0 105 0 105 178 2 177 3 0 40 0 40 -221 3 c-121 1 -223 -1
-227 -4z"/>
<path d="M14572 348 l3 -343 220 0 220 0 0 45 0 45 -178 3 -178 2 3 98 3 97
105 5 105 5 0 40 0 40 -108 3 -108 3 3 102 3 102 175 5 175 5 3 43 3 42 -226
0 -225 0 2 -342z"/>
<path d="M15262 348 l3 -343 45 0 45 0 5 237 5 237 133 -219 c74 -120 140
-224 147 -230 18 -15 26 -3 175 242 l125 206 3 -226 c1 -151 6 -230 14 -239 7
-9 26 -13 47 -11 l36 3 3 343 2 342 -43 0 -43 0 -143 -234 c-78 -129 -148
-242 -155 -251 -11 -15 -33 18 -166 234 l-153 251 -44 0 -43 0 2 -342z"/>
<path d="M16632 648 l3 -43 98 -3 97 -3 0 -282 c0 -316 1 -321 60 -315 l35 3
3 297 2 297 103 3 102 3 0 40 0 40 -253 3 -253 2 3 -42z"/>
<path d="M17362 348 l3 -343 220 0 220 0 0 45 0 45 -172 3 -173 2 0 100 0 99
103 3 102 3 0 40 0 40 -108 3 -108 3 3 102 3 102 178 3 177 2 0 45 0 45 -225
0 -225 0 2 -342z"/>
<path d="M18847 684 c-4 -4 -7 -157 -7 -340 l0 -334 24 -6 c13 -3 35 -4 47 -2
l24 3 5 244 5 244 204 -234 c112 -129 216 -240 231 -248 61 -30 60 -36 60 339
l0 340 -50 0 -50 0 -2 -247 -3 -247 -210 245 c-179 209 -214 244 -240 247 -17
2 -34 0 -38 -4z"/>
<path d="M20618 358 c1 -183 5 -339 7 -346 4 -10 48 -12 197 -10 l193 3 0 45
0 45 -152 3 -153 3 -2 292 -3 292 -45 3 -45 3 3 -333z"/>
<path d="M22957 683 c-4 -3 -7 -154 -7 -333 0 -361 -1 -354 62 -348 l33 3 3
343 2 342 -43 0 c-24 0 -47 -3 -50 -7z"/>
</g>
</svg>
